<svg xmlns="http://www.w3.org/2000/svg" xmlns:xlink="http://www.w3.org/1999/xlink" width="503.162" height="347.68" viewBox="0 0 503.162 347.68">
  <defs>
    <clipPath id="clip-path">
      <path id="Path_4870" data-name="Path 4870" d="M3512.154,447.681c-3.7-24.156-10.847-48.751-23.1-69.9a303.106,303.106,0,0,0,13.058-100.806c-.764-19.059-3.866-39.278-16.419-53.639a49.753,49.753,0,0,0-38.179-16.745c-14.348.372-29.814,4.34-38.69,15.621-24.355-15.8-58.474-11.765-81.45,5.978s-37.824,47.282-39.458,76.266c-9.108-7.535-12.985-19.466-17.441-30.415s-10.923-22.443-22.09-26.32c-11.624-4.036-24.218,1.542-35.02,7.436-10.3,5.621-21.226,12.705-24.416,24-1.787,6.327-.827,13.065.145,19.567q5.608,37.492,11.216,74.983c2.428,16.237,4.877,32.562,9.961,48.171,5.105,15.674,13.325,31.039,26.791,40.547s31.721,13.812,44.939,3.961a169.62,169.62,0,0,1,10.092,59.8c-38.9,1.921-65.39,5.716-65.39,10.084,0,6.308,55.194,11.42,123.279,11.42s123.279-5.112,123.279-11.42c0-3.018-12.645-5.762-33.288-7.8-2.966-15.556-3.348-31.737-2.579-47.513,9.732,9.165,21.74,16.521,35.011,18.128s27.811-3.439,35.158-14.606C3514.52,473.911,3514.069,460.19,3512.154,447.681Z" transform="translate(-3187.948 -206.58)" fill="none"/>
    </clipPath>
  </defs>
  <g id="Group_6287" data-name="Group 6287" transform="translate(-145.779 -85.378)">
    <g id="Group_6244" data-name="Group 6244" transform="translate(252.266 401.02)">
      <path id="Path_4844" data-name="Path 4844" d="M3507.475,735.993c0,8.847-67.084,16.018-149.837,16.018S3207.8,744.84,3207.8,735.993s67.085-16.019,149.838-16.019S3507.475,727.146,3507.475,735.993Z" transform="translate(-3207.799 -719.974)" fill="#67f1f4"/>
      <ellipse id="Ellipse_20" data-name="Ellipse 20" cx="141.841" cy="15.164" rx="141.841" ry="15.164" transform="translate(7.997 0.855)" fill="#67bbc1"/>
      <path id="Path_4845" data-name="Path 4845" d="M3497.583,736.016c0,6.307-55.194,11.419-123.279,11.419s-123.279-5.113-123.279-11.419,55.194-11.42,123.279-11.42S3497.583,729.708,3497.583,736.016Z" transform="translate(-3224.467 -721.756)" fill="#22213d"/>
    </g>
    <g id="Group_6255" data-name="Group 6255" transform="translate(240.069 85.583)">
      <g id="Group_6254" data-name="Group 6254" clip-path="url(#clip-path)">
        <g id="Group_6253" data-name="Group 6253" transform="translate(6.53 9.461)">
          <g id="Group_6245" data-name="Group 6245" transform="translate(191.51)">
            <path id="Path_4846" data-name="Path 4846" d="M3527.744,249.961a44.947,44.947,0,0,1,61.571-23.376c6.24,3.087,11.9,7.85,14.73,14.211,4.473,10.054,1.167,21.685-2.182,32.167q-5.983,18.723-11.966,37.446c-2.19,6.855-4.4,13.809-4.726,21s1.444,14.766,6.325,20.053,13.273,7.613,19.611,4.2c-14.865,19.484-38.589,31.437-62.944,28.7-8.51-.955-17.07-3.58-23.647-9.063-7.551-6.294-11.83-15.857-13.406-25.56s-.683-19.631.621-29.374C3514.831,297.218,3518.955,271.6,3527.744,249.961Z" transform="translate(-3510.271 -221.978)" fill="#383e6e"/>
            <path id="Path_4847" data-name="Path 4847" d="M3544.99,355.993c.662-11.8,6.417-22.628,11.951-33.072,5.5-10.389,10.971-20.989,13.414-32.489s1.538-24.191-4.984-33.972c-6.081-9.12-17.739-14.85-28.29-12.458a44.933,44.933,0,0,0-9.337,14.241c-8.79,21.643-12.913,47.257-16.012,70.411-1.3,9.743-2.2,19.671-.621,29.374s5.856,19.266,13.406,25.56c6.577,5.483,15.137,8.107,23.647,9.063a62.677,62.677,0,0,0,15.715-.266,38.447,38.447,0,0,1-4.224-3A40.949,40.949,0,0,1,3544.99,355.993Z" transform="translate(-3510.271 -230.26)" fill="#22213d"/>
          </g>
          <g id="Group_6246" data-name="Group 6246" transform="translate(0 48.208)">
            <path id="Path_4848" data-name="Path 4848" d="M3252.833,368.481a58.181,58.181,0,0,0,15.57-37.724,5.554,5.554,0,0,0-5.041-5.731l-.1-.009a5.494,5.494,0,0,0-5.863,4.276,38.278,38.278,0,0,1-6.278,14.159,100.29,100.29,0,0,0-11.356-40.355,4.965,4.965,0,0,0-6.356-2.254l-.091.039a4.947,4.947,0,0,0-2.608,6.418,89.935,89.935,0,0,1,5.96,23.206,97.441,97.441,0,0,0-15.957-25.986,5.344,5.344,0,0,0-7.351-.735l-.086.068a5.368,5.368,0,0,0-.773,7.7,82.073,82.073,0,0,1,12.784,20.611,90.916,90.916,0,0,0-14.445-16.9,4.82,4.82,0,0,0-6.662.117l-.067.066a4.809,4.809,0,0,0-.083,6.738,122.605,122.605,0,0,1,12.814,16.543c-4.053-3.554-8.6-7.611-12.8-11.318a3.256,3.256,0,0,0-4.382.068l-.047.044a3.26,3.26,0,0,0-.115,4.648c4.9,5.014,9.953,9.868,14.79,14.942a40.629,40.629,0,0,0,15.649,26.522l2.887,88.416a32.334,32.334,0,0,0,26.858,30.815h0a32.334,32.334,0,0,0,31.588-12.824l18.782-25.767-27.311-34.643-11.885,18.207Z" transform="translate(-3198.577 -300.439)" fill="#eba4b9"/>
            <path id="Path_4849" data-name="Path 4849" d="M3324.231,552.993l-8.019-30.869,2.031-3.112h0a32,32,0,0,1,7.215,24.837Z" transform="translate(-3243.935 -384.717)" fill="#b76d89"/>
            <path id="Path_4850" data-name="Path 4850" d="M3273.833,370.036c-13.265,2.727-15.161,17.267-13.77,21.439C3251.211,375.039,3267.5,366.93,3273.833,370.036Z" transform="translate(-3221.291 -327.023)" fill="#b76d89"/>
            <path id="Path_4851" data-name="Path 4851" d="M3335.555,494.444l27.311,34.643L3349.8,547.011l1.135-5.834a37.263,37.263,0,0,0-3.64-24.537Z" transform="translate(-3251.393 -375.244)" fill="#b76d89"/>
          </g>
          <path id="Path_4852" data-name="Path 4852" d="M3522.319,455.571a35.07,35.07,0,0,0-32.688-16.077l-16.944,1.511c.088,5.949-.636,11.807-3.1,17.185a33.225,33.225,0,0,1-15.564,15.568,45.092,45.092,0,0,1-21.795,4.291c-12.249-.5-24.557-5.449-32.619-14.684a35.3,35.3,0,0,1-8.383-28.292l-.027-.009a40.739,40.739,0,0,0-43.518,11.618l-17.537,19.827,25.033,31.755-4.531,8.763a32.155,32.155,0,0,0,2.98,34.246h0a21.629,21.629,0,0,1,4.406,13.524c-.821,42.6,5.274,84.593,5.274,84.593,21.266,16.131,52.872,22.105,77.405,11.59,9.083-3.894,44.624-3.592,57.019-16.007-1.818-2.882-5.936-10.411-7.507-13.5a92.725,92.725,0,0,1-.125-83.053l5.21-10.549,12.894-15.931,36.008-22.039Z" transform="translate(-3249.308 -303.318)" fill="#fff"/>
          <path id="Path_4853" data-name="Path 4853" d="M3480.1,617.329a371.374,371.374,0,0,0-85.708-1.081,9.238,9.238,0,0,1,6.1-4.109c2.434-.386,4.923-.224,7.371-.5,6.25-.712,11.769-4.206,17.512-6.771s12.631-4.176,18.156-1.17c4.041,2.2,6.726,6.571,11.05,8.142,4.037,1.466,8.473.143,12.751-.245S3478.718,613.262,3480.1,617.329Z" transform="translate(-3274.08 -368.534)" fill="#e4e4e0"/>
          <path id="Path_4854" data-name="Path 4854" d="M3381.015,485.221l-17.168,33.206-11.221-14.235,7.294,3.535a3.341,3.341,0,0,0,4.437-1.5h0a66.84,66.84,0,0,1,15.793-20.258Z" transform="translate(-3257.975 -323.48)" fill="#e4e4e0"/>
          <g id="Group_6248" data-name="Group 6248" transform="translate(141.512 102.759)">
            <g id="Group_6247" data-name="Group 6247">
              <path id="Path_4855" data-name="Path 4855" d="M3437.688,446.512c8.062,9.235,20.37,14.187,32.619,14.684a45.094,45.094,0,0,0,21.795-4.291,33.229,33.229,0,0,0,15.565-15.568c2.46-5.377,3.185-11.236,3.1-17.185l-21.337,1.9-2.7-36.832-38.563,15.591V424.54L3429.3,418.22A35.3,35.3,0,0,0,3437.688,446.512Z" transform="translate(-3428.896 -389.225)" fill="#eba4b9"/>
              <path id="Path_4856" data-name="Path 4856" d="M3474.085,420.4a35.3,35.3,0,0,0,17.722-12.986,51.346,51.346,0,0,0,7.3-14.369l-.28-3.817-38.563,15.591v16.129A27.389,27.389,0,0,0,3474.085,420.4Z" transform="translate(-3440.99 -389.225)" fill="#22213d"/>
            </g>
            <path id="Path_4857" data-name="Path 4857" d="M3498,432.673l-1.924-26.29-44.937,51.42a47.578,47.578,0,0,0,27.743,10.009,45.094,45.094,0,0,0,21.795-4.291,33.224,33.224,0,0,0,15.564-15.568c2.461-5.377,3.185-11.236,3.1-17.185Z" transform="translate(-3437.474 -395.841)" fill="#b76d89"/>
          </g>
          <g id="Group_6249" data-name="Group 6249" transform="translate(173.336 125.118)">
            <path id="Path_4858" data-name="Path 4858" d="M3538.753,489.019c2.272-17.8,2.944-36.932-1.2-55.824a4.828,4.828,0,0,0-4.709-3.819h-.1a4.812,4.812,0,0,0-4.762,5.348,138.013,138.013,0,0,1,.279,22.3,71.859,71.859,0,0,0-5.17-27.021,4.449,4.449,0,0,0-5.263-2.676l-.087.023a4.468,4.468,0,0,0-3.051,5.84,85.771,85.771,0,0,1,4.432,25.125c-1.237-10.988-5.763-21.519-12.154-30.588a4.95,4.95,0,0,0-6.081-1.68q-.32.146-.637.3a4.967,4.967,0,0,0-1.9,7.187,87.9,87.9,0,0,1,10.642,25.19,60.941,60.941,0,0,0-13.172-22.935,5.462,5.462,0,0,0-7.055-.716l-.1.071a5.219,5.219,0,0,0-1.156,7.237,100.282,100.282,0,0,1,15.481,34.066c-1.9-.319-4.643-.359-6.539-.678-1.524-2.584-2.99-5.12-4.467-7.666a5.985,5.985,0,0,0-8.059-2.239l-.1.057a6,6,0,0,0-2.334,8.253c7.168,12.337,22.428,27.013,42.152,33.807l48.425,55.675a26.387,26.387,0,0,0,37.376,2.461h0a26.385,26.385,0,0,0,6.493-30.827l-20.351-44.125-29.333,17.954Z" transform="translate(-3480.692 -425.614)" fill="#eba4b9"/>
            <path id="Path_4859" data-name="Path 4859" d="M3516.989,507.375c17.616.936,22.294,11.557,23.306,15.1C3540.8,502.242,3521.879,505.174,3516.989,507.375Z" transform="translate(-3494.688 -456.539)" fill="#b76d89"/>
            <path id="Path_4860" data-name="Path 4860" d="M3655.956,576.585l-36.007-26.323,29.333-17.954-21.747,18.459h0a46.125,46.125,0,0,1,25.735,21.078Z" transform="translate(-3534.387 -466.754)" fill="#b76d89"/>
          </g>
          <g id="Group_6252" data-name="Group 6252" transform="translate(116.25 2.293)">
            <path id="Path_4861" data-name="Path 4861" d="M3498.417,314.857a47.891,47.891,0,0,0,20.109-47.552c-1.094-6.406-3.654-12.8-8.47-17.159s-12.7-7.32-18.563-4.517a27.268,27.268,0,0,0-12.213-14.646,40.553,40.553,0,0,0-18.587-5.207A54.729,54.729,0,0,0,3413,250.027c-1.826,2.8-3.415,5.8-5.745,8.191a15.1,15.1,0,0,1-9.863,4.083,38.429,38.429,0,0,0,14.974,8.712c7.6,5.132,17.014,6.4,26.044,5.909s17.885-2.582,26.684-4.667c-2.452,11.624,1.8,24.556,10.374,32.783a18.285,18.285,0,0,0,3.233,21.137,28.33,28.33,0,0,1,10.476-10.736,12.112,12.112,0,0,1,4.119-1.674A8.235,8.235,0,0,1,3498.417,314.857Z" transform="translate(-3391.487 -225.71)" fill="#383e6e"/>
            <path id="Path_4862" data-name="Path 4862" d="M3418.451,297.7a140.544,140.544,0,0,0-5.039,29.321c-.616,9.613-.2,19.48,3.162,28.506s10.024,17.162,19.03,20.578c8.616,3.268,18.5,1.893,26.8-2.109s15.2-10.412,21.328-17.3c4.144,3.2,9.615,5.307,14.5,3.419a15.607,15.607,0,0,0,9.555-11.608c.676-3.814-.373-8.192-3.541-10.421-3.455-2.431-8.434-1.573-11.812.964s-5.478,6.4-7.278,10.217a16.772,16.772,0,0,1-1.069-17.6,45.433,45.433,0,0,1-7.937-36.748C3458.226,300.758,3436.674,302.552,3418.451,297.7Z" transform="translate(-3397.572 -252.396)" fill="#eba4b9"/>
            <path id="Path_4863" data-name="Path 4863" d="M3551.055,373.9a4.6,4.6,0,0,0-3.772-1.25,7.643,7.643,0,0,0-3.735,1.6,11.6,11.6,0,0,0-4.44,7.464,3.842,3.842,0,0,0,.535,3.02,2.952,2.952,0,0,0,3.76.354,6.01,6.01,0,0,0,2.269-3.35,5.8,5.8,0,0,0,.225-3.41,2.8,2.8,0,0,0-2.481-2.082,6.155,6.155,0,0,1,3.385-2.327A6.611,6.611,0,0,1,3551.055,373.9Z" transform="translate(-3446.1 -282.358)" fill="#b76d89"/>
            <g id="Group_6251" data-name="Group 6251" transform="translate(0 45.193)">
              <path id="Path_4864" data-name="Path 4864" d="M3497.628,313.127l-18.373-2.805a10.621,10.621,0,0,1,8.9,12.1l-2.49,16.311a10.621,10.621,0,0,1-12.1,8.9l18.373,2.805a10.62,10.62,0,0,0,12.1-8.9l2.491-16.311A10.621,10.621,0,0,0,3497.628,313.127Z" transform="translate(-3420.855 -303.528)" fill="#495375"/>
              <path id="Path_4865" data-name="Path 4865" d="M3446.181,306.058l-25.31-3.865-18.373-2.805a10.62,10.62,0,0,0-12.1,8.9l-2.491,16.311a10.621,10.621,0,0,0,8.9,12.1l18.374,2.806,25.31,3.865a10.621,10.621,0,0,0,12.1-8.9l2.49-16.311A10.62,10.62,0,0,0,3446.181,306.058Z" transform="translate(-3387.781 -299.265)" fill="#797c99"/>
              <g id="Group_6250" data-name="Group 6250" transform="translate(6.776 5.293)">
                <path id="Path_4866" data-name="Path 4866" d="M3407.412,317.183h0a4.678,4.678,0,0,1-3.918-5.331h0a4.677,4.677,0,0,1,5.331-3.918h0a4.677,4.677,0,0,1,3.918,5.331h0A4.678,4.678,0,0,1,3407.412,317.183Z" transform="translate(-3400.596 -307.88)" fill="#fff"/>
                <path id="Path_4867" data-name="Path 4867" d="M3402.784,343.82h0a4.679,4.679,0,0,1-3.919-5.331l.895-5.854a4.678,4.678,0,0,1,5.331-3.919h0a4.679,4.679,0,0,1,3.919,5.331l-.894,5.853A4.679,4.679,0,0,1,3402.784,343.82Z" transform="translate(-3398.811 -315.893)" fill="#fff"/>
              </g>
            </g>
            <path id="Path_4868" data-name="Path 4868" d="M3551.454,353.67l-36.594-5.909,1.448-10.023,42.884,6.3Z" transform="translate(-3436.781 -268.906)" fill="#22213d"/>
            <path id="Path_4869" data-name="Path 4869" d="M3469.051,386.048a235.3,235.3,0,0,1-32.2-8.331,15.281,15.281,0,0,0,4.546,11.96,15.551,15.551,0,0,0,12.12,4.453C3458.89,393.685,3465.172,389.787,3469.051,386.048Z" transform="translate(-3406.684 -284.321)" fill="#fff"/>
          </g>
        </g>
      </g>
    </g>
    <g id="Group_6285" data-name="Group 6285" transform="translate(145.779 85.378)" opacity="0.7">
      <g id="Group_6256" data-name="Group 6256" transform="translate(348.412 253.953)" opacity="0.7">
        <path id="Rectangle_2449" data-name="Rectangle 2449" d="M13.564,0H77.834A13.564,13.564,0,0,1,91.4,13.564v32.37A13.565,13.565,0,0,1,77.833,59.5H13.565A13.565,13.565,0,0,1,0,45.935V13.564A13.564,13.564,0,0,1,13.564,0Z" transform="translate(0.833 0.833)" fill="#abf2fb"/>
        <path id="Path_4871" data-name="Path 4871" d="M3685.445,680.736h-74.729a9.178,9.178,0,0,1-9.168-9.167V628.738a9.178,9.178,0,0,1,9.168-9.168h74.729a9.177,9.177,0,0,1,9.167,9.168v42.831A9.177,9.177,0,0,1,3685.445,680.736Zm-74.729-59.5a7.509,7.509,0,0,0-7.5,7.5v42.831a7.509,7.509,0,0,0,7.5,7.5h74.729a7.51,7.51,0,0,0,7.5-7.5V628.738a7.509,7.509,0,0,0-7.5-7.5Z" transform="translate(-3601.548 -619.57)" fill="#fff"/>
      </g>
      <g id="Group_6261" data-name="Group 6261" transform="translate(359.182 262.08)">
        <g id="Group_6257" data-name="Group 6257">
          <rect id="Rectangle_2450" data-name="Rectangle 2450" width="23.778" height="6.667" fill="#67bbc1"/>
          <rect id="Rectangle_2451" data-name="Rectangle 2451" width="47.745" height="6.667" transform="translate(23.778)" fill="#97e3ed"/>
        </g>
        <g id="Group_6258" data-name="Group 6258" transform="translate(0 12.748)">
          <rect id="Rectangle_2452" data-name="Rectangle 2452" width="49.614" height="6.667" fill="#67bbc1"/>
          <rect id="Rectangle_2453" data-name="Rectangle 2453" width="21.909" height="6.667" transform="translate(49.614)" fill="#97e3ed"/>
        </g>
        <g id="Group_6259" data-name="Group 6259" transform="translate(0 25.496)">
          <rect id="Rectangle_2454" data-name="Rectangle 2454" width="35.761" height="6.667" fill="#67bbc1"/>
          <rect id="Rectangle_2455" data-name="Rectangle 2455" width="35.761" height="6.667" transform="translate(35.761)" fill="#97e3ed"/>
        </g>
        <g id="Group_6260" data-name="Group 6260" transform="translate(0 38.244)">
          <rect id="Rectangle_2456" data-name="Rectangle 2456" width="58.365" height="6.667" fill="#67bbc1"/>
          <rect id="Rectangle_2457" data-name="Rectangle 2457" width="13.158" height="6.667" transform="translate(58.365)" fill="#97e3ed"/>
        </g>
      </g>
      <g id="Group_6264" data-name="Group 6264" transform="translate(455.576 269.256)" opacity="0.5">
        <g id="Group_6262" data-name="Group 6262">
          <path id="Path_4872" data-name="Path 4872" d="M3791.243,675.036a15.28,15.28,0,1,1,15.279-15.279A15.3,15.3,0,0,1,3791.243,675.036Zm0-28.892a13.613,13.613,0,1,0,13.613,13.613A13.627,13.627,0,0,0,3791.243,646.144Z" transform="translate(-3775.965 -644.477)" fill="#fff"/>
        </g>
        <g id="Group_6263" data-name="Group 6263" transform="translate(9.633 6.604)">
          <path id="Path_4873" data-name="Path 4873" d="M3791.644,672.577V655.225l15.028,8.676Zm1.667-14.465V669.69l10.028-5.789Z" transform="translate(-3791.644 -655.225)" fill="#d055ab"/>
        </g>
      </g>
      <g id="Group_6271" data-name="Group 6271" transform="translate(370.474 54.642)" opacity="0.7">
        <g id="Group_6265" data-name="Group 6265" transform="translate(0 43.698)">
          <rect id="Rectangle_2458" data-name="Rectangle 2458" width="56.127" height="33.912" rx="9.984" transform="translate(0.613 0.613)" fill="#abf2fb"/>
          <path id="Path_4874" data-name="Path 4874" d="M3688.063,401.439H3644.2a6.756,6.756,0,0,1-6.747-6.747V373.047a6.755,6.755,0,0,1,6.747-6.747h43.859a6.755,6.755,0,0,1,6.747,6.747v21.645A6.755,6.755,0,0,1,3688.063,401.439ZM3644.2,367.527a5.527,5.527,0,0,0-5.521,5.52v21.645a5.527,5.527,0,0,0,5.521,5.52h43.859a5.527,5.527,0,0,0,5.521-5.52V373.047a5.527,5.527,0,0,0-5.521-5.52Z" transform="translate(-3637.456 -366.3)" fill="#fff"/>
        </g>
        <g id="Group_6266" data-name="Group 6266" transform="translate(65.788 43.698)">
          <path id="Rectangle_2459" data-name="Rectangle 2459" d="M9.984,0h36.16a9.983,9.983,0,0,1,9.983,9.983V23.929a9.984,9.984,0,0,1-9.984,9.984H9.983A9.983,9.983,0,0,1,0,23.929V9.984A9.984,9.984,0,0,1,9.984,0Z" transform="translate(0.614 0.613)" fill="#31155e"/>
          <path id="Path_4875" data-name="Path 4875" d="M3795.136,401.439h-43.859a6.756,6.756,0,0,1-6.748-6.747V373.047a6.755,6.755,0,0,1,6.748-6.747h43.859a6.754,6.754,0,0,1,6.748,6.747v21.645A6.755,6.755,0,0,1,3795.136,401.439Zm-43.859-33.912a5.526,5.526,0,0,0-5.52,5.52v21.645a5.527,5.527,0,0,0,5.52,5.52h43.859a5.527,5.527,0,0,0,5.521-5.52V373.047a5.527,5.527,0,0,0-5.521-5.52Z" transform="translate(-3744.53 -366.3)" fill="#fff"/>
        </g>
        <g id="Group_6267" data-name="Group 6267">
          <rect id="Rectangle_2460" data-name="Rectangle 2460" width="56.127" height="33.912" rx="9.984" transform="translate(0.613 0.613)" fill="#f56f6f"/>
          <path id="Path_4876" data-name="Path 4876" d="M3688.063,330.318H3644.2a6.756,6.756,0,0,1-6.747-6.747V301.926a6.755,6.755,0,0,1,6.747-6.747h43.859a6.755,6.755,0,0,1,6.747,6.747V323.57A6.755,6.755,0,0,1,3688.063,330.318ZM3644.2,296.406a5.527,5.527,0,0,0-5.521,5.52V323.57a5.527,5.527,0,0,0,5.521,5.521h43.859a5.527,5.527,0,0,0,5.521-5.521V301.926a5.527,5.527,0,0,0-5.521-5.52Z" transform="translate(-3637.456 -295.179)" fill="#fff"/>
        </g>
        <g id="Group_6268" data-name="Group 6268" transform="translate(65.788)">
          <path id="Rectangle_2461" data-name="Rectangle 2461" d="M9.984,0h36.16a9.983,9.983,0,0,1,9.983,9.983V23.928a9.984,9.984,0,0,1-9.984,9.984H9.983A9.983,9.983,0,0,1,0,23.929V9.984A9.984,9.984,0,0,1,9.984,0Z" transform="translate(0.614 0.613)" fill="#3f45d1"/>
          <path id="Path_4877" data-name="Path 4877" d="M3795.136,330.318h-43.859a6.756,6.756,0,0,1-6.748-6.747V301.926a6.755,6.755,0,0,1,6.748-6.747h43.859a6.754,6.754,0,0,1,6.748,6.747V323.57A6.755,6.755,0,0,1,3795.136,330.318Zm-43.859-33.912a5.526,5.526,0,0,0-5.52,5.52V323.57a5.527,5.527,0,0,0,5.52,5.521h43.859a5.527,5.527,0,0,0,5.521-5.521V301.926a5.527,5.527,0,0,0-5.521-5.52Z" transform="translate(-3744.53 -295.179)" fill="#fff"/>
        </g>
        <g id="Group_6269" data-name="Group 6269" transform="translate(0 85.791)">
          <path id="Rectangle_2462" data-name="Rectangle 2462" d="M9.984,0h36.16a9.984,9.984,0,0,1,9.984,9.984V23.929a9.983,9.983,0,0,1-9.983,9.983H9.984A9.984,9.984,0,0,1,0,23.928V9.984A9.984,9.984,0,0,1,9.984,0Z" transform="translate(0.613 0.613)" fill="#31155e"/>
          <path id="Path_4878" data-name="Path 4878" d="M3688.063,469.948H3644.2a6.755,6.755,0,0,1-6.747-6.747V441.558a6.756,6.756,0,0,1,6.747-6.748h43.859a6.755,6.755,0,0,1,6.747,6.748V463.2A6.755,6.755,0,0,1,3688.063,469.948ZM3644.2,436.037a5.527,5.527,0,0,0-5.521,5.521V463.2a5.527,5.527,0,0,0,5.521,5.521h43.859a5.527,5.527,0,0,0,5.521-5.521V441.558a5.527,5.527,0,0,0-5.521-5.521Z" transform="translate(-3637.456 -434.81)" fill="#fff"/>
        </g>
        <g id="Group_6270" data-name="Group 6270" transform="translate(65.788 85.791)">
          <path id="Rectangle_2463" data-name="Rectangle 2463" d="M9.984,0h36.16a9.983,9.983,0,0,1,9.983,9.983V23.929a9.983,9.983,0,0,1-9.983,9.983H9.983A9.983,9.983,0,0,1,0,23.929V9.984A9.984,9.984,0,0,1,9.984,0Z" transform="translate(0.614 0.613)" fill="#abf2fb"/>
          <path id="Path_4879" data-name="Path 4879" d="M3795.136,469.948h-43.859a6.755,6.755,0,0,1-6.748-6.747V441.558a6.756,6.756,0,0,1,6.748-6.748h43.859a6.755,6.755,0,0,1,6.748,6.748V463.2A6.755,6.755,0,0,1,3795.136,469.948Zm-43.859-33.911a5.526,5.526,0,0,0-5.52,5.521V463.2a5.527,5.527,0,0,0,5.52,5.521h43.859a5.527,5.527,0,0,0,5.521-5.521V441.558a5.527,5.527,0,0,0-5.521-5.521Z" transform="translate(-3744.53 -434.81)" fill="#fff"/>
        </g>
      </g>
      <g id="Group_6272" data-name="Group 6272" transform="translate(449.546 201.693)">
        <rect id="Rectangle_2464" data-name="Rectangle 2464" width="53.616" height="4.167" fill="#abf2fb"/>
        <rect id="Rectangle_2465" data-name="Rectangle 2465" width="38.541" height="4.167" transform="translate(0 10.834)" fill="#abf2fb"/>
        <rect id="Rectangle_2466" data-name="Rectangle 2466" width="8.89" height="4.167" transform="translate(44.727 10.834)" fill="#abf2fb"/>
      </g>
      <g id="Group_6273" data-name="Group 6273" transform="translate(369.362 201.693)">
        <rect id="Rectangle_2467" data-name="Rectangle 2467" width="53.616" height="4.167" fill="#abf2fb"/>
        <rect id="Rectangle_2468" data-name="Rectangle 2468" width="28.058" height="4.167" transform="translate(0 10.834)" fill="#abf2fb"/>
        <rect id="Rectangle_2469" data-name="Rectangle 2469" width="61.187" height="4.167" transform="translate(0 21.669)" fill="#abf2fb"/>
        <rect id="Rectangle_2470" data-name="Rectangle 2470" width="31.6" height="4.167" transform="translate(0 32.503)" fill="#abf2fb"/>
        <rect id="Rectangle_2471" data-name="Rectangle 2471" width="9.353" height="4.167" transform="translate(37.816 32.503)" fill="#abf2fb"/>
      </g>
      <g id="Group_6278" data-name="Group 6278" transform="translate(31.487 207.615)">
        <g id="Group_6274" data-name="Group 6274" opacity="0.8">
          <path id="Rectangle_2472" data-name="Rectangle 2472" d="M13.564,0H77.658A13.565,13.565,0,0,1,91.222,13.565V119.782a13.565,13.565,0,0,1-13.565,13.565H13.565A13.565,13.565,0,0,1,0,119.782V13.564A13.564,13.564,0,0,1,13.564,0Z" transform="translate(0.833 0.833)" fill="#0f2754"/>
          <path id="Path_4880" data-name="Path 4880" d="M3169.455,679.165H3094.9a9.178,9.178,0,0,1-9.168-9.168V553.32a9.178,9.178,0,0,1,9.168-9.168h74.554a9.178,9.178,0,0,1,9.167,9.168V670A9.178,9.178,0,0,1,3169.455,679.165ZM3094.9,545.819a7.508,7.508,0,0,0-7.5,7.5V670a7.509,7.509,0,0,0,7.5,7.5h74.554a7.509,7.509,0,0,0,7.5-7.5V553.32a7.508,7.508,0,0,0-7.5-7.5Z" transform="translate(-3085.733 -544.152)" fill="#fff"/>
        </g>
        <g id="Group_6277" data-name="Group 6277" transform="translate(13.126 15.341)">
          <rect id="Rectangle_2473" data-name="Rectangle 2473" width="42.493" height="4.167" transform="translate(2.118)" fill="#fff"/>
          <rect id="Rectangle_2474" data-name="Rectangle 2474" width="52.193" height="4.167" transform="translate(2.118 10.834)" fill="#fff"/>
          <rect id="Rectangle_2475" data-name="Rectangle 2475" width="36.08" height="4.167" transform="translate(2.118 21.669)" fill="#fff"/>
          <rect id="Rectangle_2476" data-name="Rectangle 2476" width="36.08" height="4.167" transform="translate(2.118 32.503)" fill="#fff"/>
          <rect id="Rectangle_2477" data-name="Rectangle 2477" width="9.353" height="4.167" transform="translate(44.414 32.503)" fill="#fff"/>
          <g id="Group_6275" data-name="Group 6275" transform="translate(0 58.603)">
            <path id="Path_4881" data-name="Path 4881" d="M3167.52,711.54H3112.1a5.006,5.006,0,0,1-5-5V669.5a5.006,5.006,0,0,1,5-5h55.422a5.006,5.006,0,0,1,5,5v37.04A5.006,5.006,0,0,1,3167.52,711.54ZM3112.1,666.166a3.337,3.337,0,0,0-3.334,3.334v37.04a3.337,3.337,0,0,0,3.334,3.333h55.422a3.337,3.337,0,0,0,3.334-3.333V669.5a3.338,3.338,0,0,0-3.334-3.334Z" transform="translate(-3107.097 -664.5)" fill="#fff"/>
          </g>
          <g id="Group_6276" data-name="Group 6276" transform="translate(7.862 69.616)">
            <path id="Path_4882" data-name="Path 4882" d="M3157.876,693.643l-7.985,10.183-13.372-17.054-16.626,21.2h49.222Z" transform="translate(-3119.893 -684.101)" fill="#fff"/>
            <path id="Path_4883" data-name="Path 4883" d="M3164.539,690.827a4.2,4.2,0,1,0-4.2-4.2A4.2,4.2,0,0,0,3164.539,690.827Z" transform="translate(-3135.488 -682.424)" fill="#fff"/>
          </g>
        </g>
      </g>
      <g id="Group_6282" data-name="Group 6282" transform="translate(0 22.153)" opacity="0.8">
        <g id="Group_6279" data-name="Group 6279">
          <path id="Path_4884" data-name="Path 4884" d="M3178.816,293.852a69.188,69.188,0,1,1-61.915-38.34V242.3a82.495,82.495,0,1,0,73.786,45.761Z" transform="translate(-3034.486 -242.301)" fill="#fff"/>
        </g>
        <g id="Group_6280" data-name="Group 6280" transform="translate(20.889 20.89)">
          <path id="Path_4885" data-name="Path 4885" d="M3130.011,386.141a48.315,48.315,0,1,1,0-96.631V276.3A61.526,61.526,0,1,0,3158.2,392.486l-6-11.765A48,48,0,0,1,3130.011,386.141Z" transform="translate(-3068.484 -276.3)" fill="#fff"/>
        </g>
        <g id="Group_6281" data-name="Group 6281" transform="translate(41.278 41.278)">
          <path id="Path_4886" data-name="Path 4886" d="M3114.879,350.621a27.959,27.959,0,0,1,27.927-27.926V309.484a41.114,41.114,0,0,0-33.994,64.273l10.818-7.575A27.762,27.762,0,0,1,3114.879,350.621Z" transform="translate(-3101.669 -309.484)" fill="#fff"/>
        </g>
      </g>
      <g id="Group_6283" data-name="Group 6283" transform="translate(13.624 180.317)">
        <path id="Path_4887" data-name="Path 4887" d="M3066.939,585H3056.66V499.723h10.279v1.667h-8.612v81.944h8.612Z" transform="translate(-3056.66 -499.723)" fill="#fff"/>
      </g>
      <g id="Group_6284" data-name="Group 6284" transform="translate(133.045 0)">
        <path id="Path_4888" data-name="Path 4888" d="M3252.693,229.818h-1.667V206.246h299.833v38.186h-1.667V207.913h-296.5Z" transform="translate(-3251.026 -206.246)" fill="#fff"/>
      </g>
    </g>
  </g>
</svg>
